Coordinates
version=1
nRows=10
nColumns=38
inDegrees=yes

Units are S.I. units (second, meters, Newtons, ...)
Angles are in degrees.

endheader
time	pelvis_tilt	pelvis_list	pelvis_rotation	pelvis_tx	pelvis_ty	pelvis_tz	hip_flexion_r	hip_adduction_r	hip_rotation_r	knee_angle_r	ankle_angle_r	subtalar_angle_r	mtp_angle_r	hip_flexion_l	hip_adduction_l	hip_rotation_l	knee_angle_l	ankle_angle_l	subtalar_angle_l	mtp_angle_l	lumbar_extension	lumbar_bending	lumbar_rotation	arm_flex_r	arm_add_r	arm_rot_r	elbow_flex_r	pro_sup_r	wrist_flex_r	wrist_dev_r	arm_flex_l	arm_add_l	arm_rot_l	elbow_flex_l	pro_sup_l	wrist_flex_l	wrist_dev_l
      5.89500000	     -1.13187549	     -8.14309914	     85.45174595	     -0.17503263	      1.08125276	     -0.46266833	      4.09325431	      3.16848867	      6.71701063	    -30.01525395	     15.34328896	      0.00000000	      0.00000000	     37.47776955	     -2.84566944	     -5.98245054	    -69.38558332	      2.60181755	      0.00000000	      0.00000000	    -13.77031010	     -4.92524713	     16.88353999	      0.00000000	      0.00000000	      0.00000000	     90.00000000	     90.00000000	      0.00000000	      0.00000000	      0.00000000	      0.00000000	      0.00000000	     90.00000000	     90.00000000	      0.00000000	      0.00000000
      5.90000000	     -1.40474610	     -8.37093791	     85.54867098	     -0.17498462	      1.08386768	     -0.46371518	      3.00659204	      2.73918278	      6.64139031	    -28.99551788	     14.07406192	      0.00000000	      0.00000000	     37.88916400	     -2.49426242	     -6.09127858	    -67.10840568	      2.62238353	      0.00000000	      0.00000000	    -13.31691068	     -5.35588291	     17.18202749	      0.00000000	      0.00000000	      0.00000000	     90.00000000	     90.00000000	      0.00000000	      0.00000000	      0.00000000	      0.00000000	      0.00000000	     90.00000000	     90.00000000	      0.00000000	      0.00000000
      5.90500000	     -1.64868645	     -8.58592406	     85.68532515	     -0.17499242	      1.08654585	     -0.46487135	      1.91238842	      2.33169605	      6.48256740	    -27.95140204	     12.65392410	      0.00000000	      0.00000000	     38.20191850	     -2.13617838	     -6.16442383	    -64.69917616	      2.62906732	      0.00000000	      0.00000000	    -12.88249487	     -5.74387565	     17.40459796	      0.00000000	      0.00000000	      0.00000000	     90.00000000	     90.00000000	      0.00000000	      0.00000000	      0.00000000	      0.00000000	      0.00000000	     90.00000000	     90.00000000	      0.00000000	      0.00000000
      5.91000000	     -1.85504410	     -8.78758939	     85.85619944	     -0.17504944	      1.08926197	     -0.46611985	      0.81451500	      1.95769977	      6.24959080	    -26.89168876	     11.07931636	      0.00000000	      0.00000000	     38.41523898	     -1.78059612	     -6.19519901	    -62.16179347	      2.62345392	      0.00000000	      0.00000000	    -12.46958079	     -6.08131014	     17.56337206	      0.00000000	      0.00000000	      0.00000000	     90.00000000	     90.00000000	      0.00000000	      0.00000000	      0.00000000	      0.00000000	      0.00000000	     90.00000000	     90.00000000	      0.00000000	      0.00000000
      5.91500000	     -2.01627016	     -8.97517187	     86.05354596	     -0.17515181	      1.09198862	     -0.46744188	     -0.28100716	      1.62751999	      5.95631634	    -25.82997340	      9.34936833	      0.00000000	      0.00000000	     38.52843508	     -1.43589684	     -6.17603346	    -59.50026373	      2.60661347	      0.00000000	      0.00000000	    -12.08027879	     -6.36128988	     17.67188944	      0.00000000	      0.00000000	      0.00000000	     90.00000000	     90.00000000	      0.00000000	      0.00000000	      0.00000000	      0.00000000	      0.00000000	     90.00000000	     90.00000000	      0.00000000	      0.00000000
      5.92000000	     -2.12598276	     -9.14722152	     86.26791209	     -0.17529722	      1.09469642	     -0.46881818	     -1.36600601	      1.34979476	      5.62084300	    -24.78491214	      7.46754464	      0.00000000	      0.00000000	     38.54091457	     -1.10971492	     -6.09890859	    -56.71948115	      2.57884313	      0.00000000	      0.00000000	    -11.71651926	     -6.57803975	     17.74422211	      0.00000000	      0.00000000	      0.00000000	     90.00000000	     90.00000000	      0.00000000	      0.00000000	      0.00000000	      0.00000000	      0.00000000	     90.00000000	     90.00000000	      0.00000000	      0.00000000
      5.92500000	     -2.17911454	     -9.30134434	     86.48887747	     -0.17548371	      1.09735489	     -0.47023087	     -2.43038804	      1.13118996	      5.26465493	    -23.77999601	      5.44347965	      0.00000000	      0.00000000	     38.45237518	     -0.80917147	     -5.95607291	    -53.82631370	      2.53955565	      0.00000000	      0.00000000	    -11.38029360	     -6.72704703	     17.79408209	      0.00000000	      0.00000000	      0.00000000	     90.00000000	     90.00000000	      0.00000000	      0.00000000	      0.00000000	      0.00000000	      0.00000000	     90.00000000	     90.00000000	      0.00000000	      0.00000000
      5.93000000	     -2.17216957	     -9.43420857	     86.70593617	     -0.17570848	      1.09993309	     -0.47166478	     -3.46264737	      0.97622472	      4.91152365	    -22.84287960	      3.29478209	      0.00000000	      0.00000000	     38.26314542	     -0.54118672	     -5.74095851	    -50.83089086	      2.48735987	      0.00000000	      0.00000000	    -11.07387290	     -6.80524801	     17.83399552	      0.00000000	      0.00000000	      0.00000000	     90.00000000	     90.00000000	      0.00000000	      0.00000000	      0.00000000	      0.00000000	      0.00000000	     90.00000000	     90.00000000	      0.00000000	      0.00000000
      5.93500000	     -2.10348923	     -9.54180981	     86.90942136	     -0.17596585	      1.10239899	     -0.47310717	     -4.45064240	      0.88723607	      4.58624074	    -22.00433420	      1.04853437	      0.00000000	      0.00000000	     37.97465854	     -0.31269573	     -5.44920442	    -47.74788445	      2.42034751	      0.00000000	      0.00000000	    -10.79996687	     -6.81126077	     17.87461253	      0.00000000	      0.00000000	      0.00000000	     90.00000000	     90.00000000	      0.00000000	      0.00000000	      0.00000000	      0.00000000	      0.00000000	     90.00000000	     90.00000000	      0.00000000	      0.00000000
      5.94000000	     -1.97340676	     -9.61987650	     87.09134346	     -0.17624455	      1.10471727	     -0.47454661	     -5.38255039	      0.86449738	      4.31325436	    -21.29691577	     -1.25781879	      0.00000000	      0.00000000	     37.59006550	     -0.13061483	     -5.07966106	    -44.59750592	      2.33657672	      0.00000000	      0.00000000	    -10.56179323	     -6.74565586	     17.92420941	      0.00000000	      0.00000000	      0.00000000	     90.00000000	     90.00000000	      0.00000000	      0.00000000	      0.00000000	      0.00000000	      0.00000000	     90.00000000	     90.00000000	      0.00000000	      0.00000000
